# xmcd
#
# Track frame offsets: 
#        150
#        17027
#        49504
#        61172
#        87059
#        104549
#        115873
#        144503
#        161197
#
# Disc length: 2405 seconds
#
# Revision: 2
# Processed by: cddbd v1.5.2PL0 Copyright (c) Steve Scherf et al.
# Submitted via: ExactAudioCopyFreeDBPlugin 1.0
#
DISCID=6f096309
DTITLE=Kelly Richey Band - Speechless
DYEAR=1900
DGENRE=Blues
TTITLE0=One Day We'll Feel the Sun
TTITLE1=Is There Any Reason
TTITLE2=Only the Bird Knows
TTITLE3=Climb the Highest Mountain
TTITLE4=Stand Alone
TTITLE5=And I Sing
TTITLE6=The Longest Road
TTITLE7=Without a Trace
TTITLE8=If I Could Fly
EXTD=
EXTT0=
EXTT1=
EXTT2=
EXTT3=
EXTT4=
EXTT5=
EXTT6=
EXTT7=
EXTT8=
PLAYORDER=
